<svg xmlns="http://www.w3.org/2000/svg" viewBox="0 0 500 500"><g id="freepik--background-complete--inject-12"><rect x="416.78" y="398.49" width="33.12" height="0.25" style="fill:#ebebeb"></rect><rect x="322.53" y="401.21" width="8.69" height="0.25" style="fill:#ebebeb"></rect><rect x="396.59" y="389.21" width="19.19" height="0.25" style="fill:#ebebeb"></rect><rect x="52.46" y="390.89" width="43.19" height="0.25" style="fill:#ebebeb"></rect><rect x="104.56" y="390.89" width="6.33" height="0.25" style="fill:#ebebeb"></rect><rect x="131.47" y="395.11" width="93.68" height="0.25" style="fill:#ebebeb"></rect><path d="M237,337.8H43.92a5.71,5.71,0,0,1-5.71-5.71V60.66A5.71,5.71,0,0,1,43.92,55H237a5.71,5.71,0,0,1,5.71,5.71V332.09A5.71,5.71,0,0,1,237,337.8ZM43.92,55.2a5.47,5.47,0,0,0-5.46,5.46V332.09a5.47,5.47,0,0,0,5.46,5.46H237a5.47,5.47,0,0,0,5.46-5.46V60.66A5.47,5.47,0,0,0,237,55.2Z" style="fill:#ebebeb"></path><path d="M453.31,337.8H260.21a5.72,5.72,0,0,1-5.71-5.71V60.66A5.72,5.72,0,0,1,260.21,55h193.1A5.71,5.71,0,0,1,459,60.66V332.09A5.71,5.71,0,0,1,453.31,337.8ZM260.21,55.2a5.47,5.47,0,0,0-5.46,5.46V332.09a5.47,5.47,0,0,0,5.46,5.46h193.1a5.47,5.47,0,0,0,5.46-5.46V60.66a5.47,5.47,0,0,0-5.46-5.46Z" style="fill:#ebebeb"></path><rect y="382.4" width="500" height="0.25" style="fill:#ebebeb"></rect></g><g id="freepik--Extraction--inject-12"><path d="M396.51,241.47c-7.08,0-15.44-12.93-22.82-24.35-4.84-7.48-9.54-14.75-14.54-20H375.7v-8H355.4c3.63-4.14,7.07-9.45,10.6-14.9,5.54-8.58,12.44-19.25,17.71-19.25h15.52v-8H383.71c-9.63,0-16.82,11.13-24.43,22.91-5.54,8.57-12.44,19.24-17.72,19.24H164.42c-5.27,0-12.17-10.67-17.71-19.24C139.09,158.1,131.9,147,122.28,147H106.75v8h15.53c5.27,0,12.17,10.67,17.71,19.25,3.52,5.45,7,10.76,10.59,14.9H78.68v8h80.66c-5,5.25-9.71,12.52-14.54,20-7.38,11.41-15.74,24.35-22.82,24.35H92.56v8H122c11.43,0,20.23-13.6,29.53-28,7.38-11.42,15.74-24.35,22.82-24.35H344.15c7.08,0,15.44,12.93,22.82,24.35,9.31,14.4,18.1,28,29.54,28h29.42v-8Z" style="fill:#263238"></path></g><g id="freepik--Device--inject-12"><path d="M333.51,155.89h-12.1L312,263h12.1a5.11,5.11,0,0,0,5-4.59l8.56-97.9A4.13,4.13,0,0,0,333.51,155.89Z" style="fill:#263238"></path><path d="M321.35,263H174.87a4.13,4.13,0,0,1-4.18-4.59l8.56-97.9a5.11,5.11,0,0,1,5-4.58H330.72a4.13,4.13,0,0,1,4.18,4.58l-8.56,97.9A5.11,5.11,0,0,1,321.35,263Z" style="fill:#407BFF"></path><path d="M317.44,250.46H181a3.58,3.58,0,0,1-3.63-4l7.11-81.34a4.44,4.44,0,0,1,4.33-4H325.25a3.58,3.58,0,0,1,3.63,4l-7.11,81.34A4.44,4.44,0,0,1,317.44,250.46Z" style="fill:#fafafa;opacity:0.9"></path></g><g id="freepik--Desk--inject-12"><rect x="156.76" y="290.33" width="205.63" height="114.97" style="fill:#407BFF"></rect><rect x="137.55" y="290.33" width="210.56" height="10.17" style="fill:#407BFF"></rect><rect x="137.55" y="290.33" width="210.56" height="10.17" style="fill:#fff;opacity:0.6000000000000001"></rect><rect x="133.53" y="290.33" width="8.05" height="114.97" style="fill:#407BFF"></rect><rect x="133.53" y="290.33" width="8.05" height="114.97" style="fill:#fff;opacity:0.5"></rect><rect x="345.68" y="290.33" width="8.05" height="114.97" style="fill:#407BFF"></rect><rect x="345.68" y="290.33" width="8.05" height="114.97" style="fill:#fff;opacity:0.5"></rect><rect x="126.91" y="283.7" width="233.43" height="8.83" style="fill:#407BFF"></rect><rect x="126.91" y="283.7" width="233.43" height="8.83" style="fill:#fff;opacity:0.6000000000000001"></rect></g></svg>
