<svg xmlns="http://www.w3.org/2000/svg" width="1095.29" height="713.842" viewBox="0 0 1095.29 713.842" xmlns:xlink="http://www.w3.org/1999/xlink" role="img" artist="Katerina Limpitsouni" source="https://undraw.co/"><g transform="translate(-352.434 -211.319)"><rect width="733" height="2" transform="translate(694.586 684.543)" fill="#3f3d56"/><rect width="255" height="2" transform="translate(976.586 269.543)" fill="#3f3d56"/><rect width="395.585" height="2" transform="translate(1003 865.161)" fill="#3f3d56"/><path d="M323.586,723.272a60,60,0,1,1,60-60,60,60,0,0,1-60,60Zm0-118.621a58.621,58.621,0,1,0,58.621,58.621A58.621,58.621,0,0,0,323.586,604.651Z" transform="translate(619.414 201.89)" fill="#3f3d56"/><g transform="translate(-5082.415 7158.755)"><g transform="translate(6314 -6727.055)"><path d="M482.508,182.2h-2.384V116.959A37.759,37.759,0,0,0,442.365,79.2H304.129a37.759,37.759,0,0,0-37.759,37.759V474.9a37.759,37.759,0,0,0,37.759,37.759H442.361A37.759,37.759,0,0,0,480.12,474.9V228.647h2.387Z" transform="translate(-266.37 -79.2)" fill="#090814"/><path d="M450.957,95.685H432.914a13.4,13.4,0,0,1-12.4,18.458h-79.2a13.4,13.4,0,0,1-12.4-18.458H312.059a28.2,28.2,0,0,0-28.2,28.2V481.309a28.2,28.2,0,0,0,28.2,28.2h138.9a28.2,28.2,0,0,0,28.2-28.2V123.884a28.2,28.2,0,0,0-28.195-28.2Z" transform="translate(-273.438 -85.864)" fill="#fff"/></g><g transform="translate(6387.447 -6415.052)"><ellipse cx="27.363" cy="27.363" rx="27.363" ry="27.363" transform="translate(0.497 24.514)" fill="#d6d6e3"/><path d="M152.069,394.239a34.484,34.484,0,1,1,34.483-34.483A34.483,34.483,0,0,1,152.069,394.239Zm0-68.06a33.576,33.576,0,1,0,33.576,33.576,33.576,33.576,0,0,0-33.576-33.576Z" transform="translate(-117.586 -325.272)" fill="#3f3d56"/></g><path d="M661.538,453.959H610.821a2.136,2.136,0,0,1,0-4.272h50.718a2.136,2.136,0,0,1,0,4.272Z" transform="translate(5793.568 -6995.313)" fill="#090814"/><path d="M670.349,481.007H610.821a2.136,2.136,0,0,1,0-4.272h59.528a2.136,2.136,0,0,1,0,4.272Z" transform="translate(5793.568 -7015.153)" fill="#090814"/><path d="M661.538,575.172H610.821a2.136,2.136,0,0,1,0-4.272h50.718a2.136,2.136,0,0,1,0,4.272Z" transform="translate(5793.568 -7084.222)" fill="#090814"/><path d="M670.348,602.22H610.821a2.136,2.136,0,0,1,0-4.272h59.528a2.136,2.136,0,1,1,0,4.272Z" transform="translate(5793.568 -7104.061)" fill="#090814"/><path d="M521.854,455.434H503.906a1.025,1.025,0,0,1-1.024-1.024V438.433a1.025,1.025,0,0,1,1.024-1.024h17.948a1.025,1.025,0,0,1,1.024,1.024V454.41A1.025,1.025,0,0,1,521.854,455.434Z" transform="translate(5871.174 -6986.308)" fill="#090814"/><path d="M521.854,576.647H503.906a1.025,1.025,0,0,1-1.024-1.024V559.646a1.025,1.025,0,0,1,1.024-1.024h17.948a1.025,1.025,0,0,1,1.024,1.024v15.977A1.025,1.025,0,0,1,521.854,576.647Z" transform="translate(5871.174 -7075.216)" fill="#090814"/><path d="M698.424,319.025H661.032a2.136,2.136,0,0,1,0-4.272h37.392a2.136,2.136,0,0,1,0,4.272Z" transform="translate(5756.739 -6896.34)" fill="#6c63ff"/><path d="M707.234,346.072h-46.2a2.136,2.136,0,1,1,0-4.272h46.2a2.136,2.136,0,1,1,0,4.272Z" transform="translate(5756.739 -6916.18)" fill="#6c63ff"/><path d="M538.167,310.926H503.695a1.025,1.025,0,0,1-1.024-1.024V283a1.025,1.025,0,0,1,1.024-1.024h34.472A1.025,1.025,0,0,1,539.191,283v26.9A1.025,1.025,0,0,1,538.167,310.926Z" transform="translate(5871.329 -6872.298)" fill="#6c63ff"/><rect width="95.863" height="16.151" rx="8.075" transform="translate(6374.276 -6478.343)" fill="#6c63ff"/></g><g transform="translate(-5085 7223.312)"><path d="M902.469,491H277.44V82.152A22.894,22.894,0,0,1,300.306,59.29H879.6a22.893,22.893,0,0,1,22.866,22.862Z" transform="translate(5233.525 -7044)" fill="#090814"/><rect width="588.262" height="370.036" transform="translate(5528.163 -6956.839)" fill="#fff"/><path d="M939.561,439.385H265.846l-43.124-8.208a8.969,8.969,0,0,1-7.282-8.8v-9.1H985.163v9.226a8.994,8.994,0,0,1-7.119,8.765l-38.482,8.1Z" transform="translate(5221.994 -6978.154)" fill="#ccc"/><path d="M603.33,425.151H496.459a10.019,10.019,0,0,1-10-10V413.29h126.9v1.856a10.019,10.019,0,0,1-10.005,10.005Z" transform="translate(5272.406 -6978.152)" fill="#2f2e41"/><path d="M734.766,322.952H663a4.1,4.1,0,0,1,0-8.2h71.771a4.1,4.1,0,0,1,0,8.2Z" transform="translate(5272.49 -7199.922)" fill="#6c63ff"/><path d="M751.677,350H663a4.1,4.1,0,0,1,0-8.2h88.681a4.1,4.1,0,0,1,0,8.2Z" transform="translate(5272.49 -7213.134)" fill="#6c63ff"/><path d="M570.8,337.545H504.636a1.968,1.968,0,0,1-1.966-1.966V283.94a1.968,1.968,0,0,1,1.966-1.966H570.8a1.968,1.968,0,0,1,1.966,1.966v51.639A1.968,1.968,0,0,1,570.8,337.545Z" transform="translate(5348.799 -7183.912)" fill="#6c63ff"/><rect width="184" height="31" rx="15.5" transform="translate(5852 -6687)" fill="#6c63ff"/><rect width="32.71" height="32.71" transform="translate(5584.682 -6901.938)" fill="#6c63ff"/></g></g></svg>
